<svg width="392" height="364" viewBox="0 0 392 364" fill="none" xmlns="http://www.w3.org/2000/svg">
<path d="M162.258 62.1919C176.603 35.5326 214.841 35.5327 229.185 62.192L342.548 272.877C359.29 303.993 328.214 339.117 295.29 326.29L209.517 292.874C200.645 289.418 190.8 289.418 181.928 292.874L96.1535 326.29C63.2288 339.117 32.1529 303.994 48.8958 272.877L162.258 62.1919Z" fill="#111111"/>
<path d="M144.745 231.63C145.315 229.41 146.035 226.65 146.905 223.35C147.775 220.02 148.72 216.48 149.74 212.73C150.76 208.95 151.765 205.305 152.755 201.795C154.525 202.515 156.145 203.07 157.615 203.46C159.115 203.82 160.315 203.865 161.215 203.595C162.115 203.325 162.565 202.59 162.565 201.39C162.565 200.58 161.98 199.8 160.81 199.05C159.67 198.3 157.45 197.52 154.15 196.71C154.42 195.66 154.69 194.67 154.96 193.74C155.23 192.78 155.485 191.88 155.725 191.04C157.795 191.91 159.76 192.615 161.62 193.155C163.48 193.695 164.995 193.86 166.165 193.65C167.335 193.44 167.92 192.66 167.92 191.31C167.92 190.32 167.17 189.42 165.67 188.61C164.17 187.8 161.35 186.93 157.21 186C157.24 185.88 157.255 185.79 157.255 185.73C157.285 185.64 157.315 185.535 157.345 185.415C158.125 182.805 159.55 180.78 161.62 179.34C163.72 177.9 166.585 177.21 170.215 177.27C173.935 177.27 176.845 178.095 178.945 179.745C181.045 181.365 182.365 183.96 182.905 187.53C182.965 187.98 183.025 188.46 183.085 188.97C183.175 189.45 183.25 189.96 183.31 190.5C183.37 190.98 183.43 191.475 183.49 191.985C183.58 192.495 183.655 193.02 183.715 193.56C183.775 193.86 183.82 194.16 183.85 194.46C183.91 194.76 183.955 195.06 183.985 195.36C184.045 195.66 184.09 195.975 184.12 196.305C184.21 196.995 184.3 197.7 184.39 198.42C184.48 199.14 184.585 199.875 184.705 200.625C184.765 201.075 184.825 201.54 184.885 202.02C184.975 202.47 185.035 202.95 185.065 203.46C185.125 203.82 185.17 204.195 185.2 204.585C185.26 204.945 185.32 205.32 185.38 205.71C185.44 206.07 185.485 206.445 185.515 206.835C185.875 209.445 186.22 212.1 186.55 214.8C186.91 217.5 187.255 220.155 187.585 222.765C187.915 225.375 188.215 227.85 188.485 230.19C188.785 232.53 189.055 234.66 189.295 236.58C189.505 238.23 189.25 239.61 188.53 240.72C187.81 241.86 186.775 242.43 185.425 242.43C184.255 242.43 183.25 241.98 182.41 241.08C181.6 240.21 181.105 238.92 180.925 237.21C180.355 231.81 179.845 226.2 179.395 220.38C178.945 214.53 178.45 208.62 177.91 202.65C177.73 200.58 177.355 199.14 176.785 198.33C176.215 197.52 175.27 197.115 173.95 197.115C172.75 197.115 171.61 197.475 170.53 198.195C169.48 198.915 168.295 200.61 166.975 203.28C164.425 208.44 161.89 213.72 159.37 219.12C156.88 224.52 154.435 229.71 152.035 234.69C151.435 235.92 150.775 236.82 150.055 237.39C149.335 237.93 148.525 238.2 147.625 238.2C146.335 238.2 145.405 237.585 144.835 236.355C144.295 235.125 144.265 233.55 144.745 231.63ZM155.185 224.25L156.895 217.86C160.735 217.71 164.56 217.56 168.37 217.41C172.18 217.26 175.795 217.14 179.215 217.05C180.655 216.99 181.84 217.215 182.77 217.725C183.7 218.205 184.165 219 184.165 220.11C184.165 221.31 183.835 222.18 183.175 222.72C182.545 223.26 181.615 223.56 180.385 223.62C176.185 223.8 172.03 223.935 167.92 224.025C163.81 224.115 159.565 224.19 155.185 224.25ZM185.515 232.71C184.705 232.71 183.985 232.455 183.355 231.945C182.755 231.435 182.455 230.73 182.455 229.83C182.455 228.93 182.725 228.24 183.265 227.76C183.835 227.28 184.585 227.04 185.515 227.04C185.695 227.04 185.95 227.04 186.28 227.04C186.61 227.04 186.925 227.04 187.225 227.04V232.71C186.955 232.74 186.67 232.755 186.37 232.755C186.07 232.725 185.785 232.71 185.515 232.71ZM150.46 220.515C147.76 219.735 145.675 219.045 144.205 218.445C142.735 217.845 141.715 217.26 141.145 216.69C140.545 216.09 140.245 215.415 140.245 214.665C140.245 213.225 140.83 212.37 142 212.1C143.14 211.83 144.64 211.95 146.5 212.46C148.36 212.97 150.31 213.69 152.35 214.62L150.46 220.515ZM153.025 225.78C152.275 225.54 151.63 225.285 151.09 225.015C150.58 224.745 150.19 224.43 149.92 224.07C149.65 223.71 149.515 223.26 149.515 222.72C149.515 221.58 149.725 220.68 150.145 220.02C150.565 219.36 151.165 218.955 151.945 218.805C152.755 218.655 153.745 218.79 154.915 219.21L153.025 225.78ZM181.285 213.63L180.655 207.42C181.735 207.3 182.62 207.3 183.31 207.42C184 207.54 184.51 207.87 184.84 208.41C185.17 208.92 185.335 209.73 185.335 210.84C185.335 211.92 184.99 212.61 184.3 212.91C183.61 213.21 182.605 213.45 181.285 213.63ZM184.48 223.35L184.165 216.78C186.685 216.69 188.665 216.66 190.105 216.69C191.575 216.72 192.61 216.99 193.21 217.5C193.84 217.98 194.155 218.895 194.155 220.245C194.155 221.475 193.495 222.3 192.175 222.72C190.885 223.11 188.32 223.32 184.48 223.35ZM201.439 241.8C200.659 232.56 199.939 223.05 199.279 213.27C198.619 203.46 198.109 193.95 197.749 184.74C197.659 182.67 197.959 181.02 198.649 179.79C199.369 178.53 200.719 177.9 202.699 177.9C204.679 177.9 205.999 178.515 206.659 179.745C207.349 180.975 207.709 182.52 207.739 184.38C207.829 187.08 207.829 189.96 207.739 193.02C207.649 196.05 207.649 199.14 207.739 202.29C207.799 203.55 208.144 204.3 208.774 204.54C209.434 204.78 210.229 204.48 211.159 203.64C215.839 199.44 220.519 195.12 225.199 190.68C229.879 186.24 234.199 182.25 238.159 178.71C238.939 178.02 239.674 177.48 240.364 177.09C241.054 176.67 241.684 176.46 242.254 176.46C242.674 176.46 243.079 176.565 243.469 176.775C243.859 176.985 244.174 177.27 244.414 177.63C244.654 177.99 244.774 178.395 244.774 178.845C244.774 179.475 244.579 180.165 244.189 180.915C243.829 181.665 243.334 182.415 242.704 183.165C240.484 185.925 237.874 188.97 234.874 192.3C231.904 195.63 228.889 199.14 225.829 202.83C225.259 203.49 224.929 204.195 224.839 204.945C224.779 205.695 225.019 206.46 225.559 207.24C229.369 212.34 232.504 216.585 234.964 219.975C237.454 223.335 239.419 226.05 240.859 228.12C242.329 230.16 243.409 231.75 244.099 232.89C244.789 234.03 245.224 234.9 245.404 235.5C245.614 236.07 245.719 236.58 245.719 237.03C245.719 238.11 245.359 238.995 244.639 239.685C243.949 240.375 243.079 240.72 242.029 240.72C241.429 240.72 240.724 240.57 239.914 240.27C239.104 240 237.889 239.415 236.269 238.515C234.679 237.615 232.399 236.265 229.429 234.465C226.489 232.665 222.559 230.25 217.639 227.22C216.349 226.41 215.314 225.855 214.534 225.555C213.784 225.225 213.019 225.06 212.239 225.06C211.159 225.06 210.349 225.42 209.809 226.14C209.269 226.83 208.969 227.85 208.909 229.2C208.819 231.45 208.774 233.7 208.774 235.95C208.804 238.2 208.789 239.97 208.729 241.26C208.639 243.15 208.324 244.545 207.784 245.445C207.244 246.375 206.359 246.84 205.129 246.84C204.019 246.84 203.164 246.39 202.564 245.49C201.964 244.59 201.589 243.36 201.439 241.8ZM239.149 213.63C237.529 213.63 236.284 213.195 235.414 212.325C234.544 211.455 234.109 210.15 234.109 208.41C234.109 207.06 234.499 205.935 235.279 205.035C236.089 204.105 237.259 203.64 238.789 203.64C240.409 203.64 241.714 204.045 242.704 204.855C243.694 205.635 244.189 206.7 244.189 208.05C244.189 209.88 243.694 211.275 242.704 212.235C241.714 213.165 240.529 213.63 239.149 213.63ZM229.564 180.69C231.754 182.31 233.914 184.05 236.044 185.91C238.204 187.74 240.319 189.6 242.389 191.49C243.649 192.6 244.459 193.635 244.819 194.595C245.209 195.555 244.999 196.515 244.189 197.475C243.349 198.525 242.389 198.915 241.309 198.645C240.229 198.375 239.059 197.73 237.799 196.71C235.519 194.85 233.269 193.005 231.049 191.175C228.859 189.315 226.714 187.35 224.614 185.28C223.594 184.29 222.979 183.345 222.769 182.445C222.589 181.545 222.859 180.72 223.579 179.97C224.269 179.19 225.139 178.905 226.189 179.115C227.239 179.295 228.364 179.82 229.564 180.69ZM228.619 192.03L224.119 196.35C223.579 195.93 223.294 195.345 223.264 194.595C223.234 193.815 223.654 193.02 224.524 192.21C225.304 191.34 226.069 190.98 226.819 191.13C227.569 191.28 228.169 191.58 228.619 192.03ZM204.229 233.34C204.559 233.31 204.859 233.31 205.129 233.34C205.429 233.34 205.729 233.34 206.029 233.34C206.809 233.34 207.394 233.565 207.784 234.015C208.174 234.435 208.369 235.14 208.369 236.13C208.369 237.21 208.174 237.99 207.784 238.47C207.394 238.95 206.809 239.19 206.029 239.19C205.759 239.19 205.504 239.19 205.264 239.19C205.024 239.19 204.769 239.19 204.499 239.19C203.659 239.19 202.954 238.965 202.384 238.515C201.814 238.035 201.529 237.24 201.529 236.13C201.529 235.08 201.784 234.36 202.294 233.97C202.834 233.55 203.479 233.34 204.229 233.34ZM203.239 188.25C202.519 188.25 201.964 188.07 201.574 187.71C201.184 187.35 200.989 186.9 200.989 186.36C200.989 185.67 201.154 185.16 201.484 184.83C201.814 184.47 202.429 184.29 203.329 184.29C203.779 184.29 204.154 184.455 204.454 184.785C204.784 185.115 204.949 185.58 204.949 186.18C204.949 186.81 204.799 187.32 204.499 187.71C204.199 188.07 203.779 188.25 203.239 188.25ZM226.189 226.14C226.999 226.14 227.704 225.81 228.304 225.15C228.934 224.46 229.249 223.56 229.249 222.45C229.249 221.55 228.964 220.785 228.394 220.155C227.824 219.525 227.119 219.21 226.279 219.21C224.839 219.21 223.819 219.51 223.219 220.11C222.619 220.71 222.319 221.58 222.319 222.72C222.319 223.74 222.619 224.565 223.219 225.195C223.849 225.825 224.839 226.14 226.189 226.14ZM216.559 218.13C217.729 218.13 218.689 217.695 219.439 216.825C220.219 215.955 220.609 215.01 220.609 213.99C220.609 212.46 220.144 211.275 219.214 210.435C218.284 209.565 217.099 209.13 215.659 209.13C214.579 209.13 213.634 209.535 212.824 210.345C212.014 211.125 211.609 212.16 211.609 213.45C211.609 214.8 211.999 215.925 212.779 216.825C213.559 217.695 214.819 218.13 216.559 218.13Z" fill="white"/>
</svg>
